<svg id="图层_1" data-name="图层 1" xmlns="http://www.w3.org/2000/svg" viewBox="0 0 512 418.13">
    <defs>
        <style>.cls-1{fill:#fff;}</style>
    </defs>
    <title>mute01</title>
    <path class="cls-1"
          d="M272.21,57.17a25.57,25.57,0,0,1,5.12,15.36V439.47a25.6,25.6,0,0,1-41,20.48l-124-93a21.33,21.33,0,0,0-12.8-4.27H21.33A21.33,21.33,0,0,1,0,341.33V170.67a21.33,21.33,0,0,1,21.33-21.33H99.56a21.33,21.33,0,0,0,12.8-4.27l124-93A25.6,25.6,0,0,1,272.21,57.17Zm129,47.19A21.33,21.33,0,0,1,431,99.29h0a192,192,0,0,1,.19,313.24,21.34,21.34,0,1,1-24.75-34.77,149.35,149.35,0,0,0-.15-243.67A21.33,21.33,0,0,1,401.24,104.36Zm-10.92,71.42a106.68,106.68,0,0,1,.9,159.64,21.34,21.34,0,1,1-28.5-31.77,64,64,0,0,0-.53-95.79,21.34,21.34,0,1,1,28.14-32.08Z"
          transform="translate(0 -46.93)"/>
</svg>