<svg id="图层_1" data-name="图层 1" xmlns="http://www.w3.org/2000/svg" viewBox="0 0 447.47 447.41">
    <defs>
        <style>.cls-1{fill:#fff;}</style>
    </defs>
    <title>mute</title>
    <path class="cls-1"
          d="M426.3,256l48.25-48.25a17.08,17.08,0,1,0-24.15-24.15l-48.25,48.3-48.3-48.3a17.06,17.06,0,1,0-24.1,24.15L378,256l-48.25,48.3a17,17,0,0,0,24.1,24.1l48.3-48.25,48.25,48.25a17.06,17.06,0,0,0,24.15-24.1ZM264,32.45c-5.1-.5-11.05.75-18.05,5,0,0-116.6,101.75-121.7,106.75H60a28,28,0,0,0-28,28V343.5a27.93,27.93,0,0,0,28,28h64.2c5.1,5,121.7,103.2,121.7,103.2,7,4.2,13,5.5,18.05,5,10.35-1,17.6-9.65,19.85-18.8.1-.9.1-408.75,0-409.65-2.2-9.1-9.5-17.8-19.8-18.75Z"
          transform="translate(-32.1 -32.35)"/>
</svg>